<svg width="29" height="29" viewBox="0 0 29 29" fill="none" xmlns="http://www.w3.org/2000/svg">
<path d="M0 0V29H29V0H0ZM9.66667 22.9583H6.04167V9.66667H9.66667V22.9583ZM7.85417 8.1345C6.68692 8.1345 5.73958 7.17992 5.73958 6.003C5.73958 4.82608 6.68692 3.8715 7.85417 3.8715C9.02142 3.8715 9.96875 4.82608 9.96875 6.003C9.96875 7.17992 9.02262 8.1345 7.85417 8.1345ZM24.1667 22.9583H20.5417V16.1868C20.5417 12.1172 15.7083 12.4253 15.7083 16.1868V22.9583H12.0833V9.66667H15.7083V11.7994C17.3964 8.67463 24.1667 8.44383 24.1667 14.7912V22.9583Z" fill="white"/>
</svg>
