<svg width="76" height="55" viewBox="0 0 76 55" fill="none" xmlns="http://www.w3.org/2000/svg">
<path d="M31.5404 9.41732C28.9848 10.1395 26.5959 11.1395 24.3737 12.4173C22.207 13.6951 20.2904 15.1951 18.6237 16.9173C17.0126 18.584 15.7348 20.3895 14.7904 22.334C13.8459 24.2784 13.3737 26.2784 13.3737 28.334C13.3737 29.5562 13.6237 30.6395 14.1237 31.584C14.6237 32.4729 15.207 32.9173 15.8737 32.9173C16.5959 32.9173 17.1793 32.7784 17.6237 32.5006C18.1237 32.2229 18.6237 31.9173 19.1237 31.584C19.6237 31.2507 20.1793 30.9451 20.7904 30.6673C21.457 30.3895 22.3181 30.2507 23.3737 30.2507C24.4848 30.2507 25.5126 30.5007 26.457 31.0007C27.457 31.4451 28.3181 32.084 29.0404 32.9173C29.8181 33.7507 30.4293 34.7507 30.8737 35.9173C31.3181 37.084 31.5404 38.334 31.5404 39.6673C31.5404 41.1118 31.2348 42.4451 30.6237 43.6673C30.0126 44.8895 29.1793 45.9451 28.1237 46.834C27.1237 47.7229 25.9293 48.4451 24.5404 49.0007C23.207 49.5007 21.7626 49.7507 20.207 49.7507C18.1515 49.7507 16.2348 49.3062 14.457 48.4173C12.6793 47.4729 11.1237 46.2229 9.79036 44.6673C8.45703 43.0562 7.40148 41.2229 6.6237 39.1673C5.84592 37.0562 5.45703 34.8062 5.45703 32.4173C5.45703 28.6395 6.15148 25.1673 7.54037 22.0006C8.98481 18.834 10.8737 16.084 13.207 13.7506C15.5959 11.3618 18.3737 9.47287 21.5404 8.08398C24.707 6.63953 28.0404 5.8062 31.5404 5.58398V9.41732Z" fill="white"/>
<path fill-rule="evenodd" clip-rule="evenodd" d="M36.5404 13.1995L32.9002 14.2283C30.7353 14.8401 28.7364 15.6785 26.8899 16.7375C25.1008 17.7954 23.5502 19.0159 22.2167 20.3938C20.9471 21.7076 19.9851 23.0826 19.2879 24.5179C19.0225 25.0644 18.8187 25.6031 18.6715 26.1376C18.6881 26.13 18.7047 26.1224 18.7213 26.1149L18.7938 26.0819L18.8673 26.0513C20.3564 25.4308 21.9367 25.25 23.3737 25.25C25.2093 25.25 26.9907 25.6582 28.6418 26.5007C30.2249 27.2298 31.6078 28.2645 32.7579 29.5723C33.9861 30.9066 34.9042 32.4517 35.5461 34.1367C36.2215 35.9096 36.5404 37.7668 36.5404 39.6667C36.5404 41.8419 36.0739 43.9467 35.0958 45.9028C34.187 47.7204 32.943 49.3001 31.3954 50.6147C29.9269 51.9089 28.2393 52.9056 26.3973 53.6424L26.3469 53.6626L26.296 53.6817C24.3516 54.4108 22.3067 54.75 20.207 54.75C17.4026 54.75 14.7171 54.1369 12.221 52.8888L12.1658 52.8612L12.1113 52.8323C9.77172 51.5894 7.72671 49.9421 5.99408 47.9207L5.96595 47.8879L5.93839 47.8546C4.23645 45.798 2.9099 43.4803 1.94727 40.9362L1.93954 40.9157L1.93198 40.8952C0.937962 38.1972 0.457031 35.3587 0.457031 32.4167C0.457031 28.0121 1.27005 23.8481 2.96142 19.9917L2.9761 19.9583L2.99127 19.925C4.6699 16.245 6.89302 12.993 9.6715 10.2145C12.5021 7.38394 15.7898 5.15055 19.4986 3.51913C23.214 1.82919 27.1325 0.853175 31.2235 0.593429L36.5404 0.255859V13.1995ZM21.5404 8.08338C18.3737 9.47227 15.5959 11.3612 13.207 13.75C10.8737 16.0834 8.98481 18.8334 7.54037 22C6.15148 25.1667 5.45703 28.6389 5.45703 32.4167C5.45703 34.8056 5.84592 37.0556 6.6237 39.1667C7.40148 41.2223 8.45703 43.0556 9.79036 44.6667C11.1237 46.2223 12.6793 47.4723 14.457 48.4167C16.2348 49.3056 18.1515 49.75 20.207 49.75C21.7626 49.75 23.207 49.5 24.5404 49C25.9293 48.4445 27.1237 47.7223 28.1237 46.8334C29.1793 45.9445 30.0126 44.8889 30.6237 43.6667C31.2348 42.4445 31.5404 41.1112 31.5404 39.6667C31.5404 38.3334 31.3181 37.0834 30.8737 35.9167C30.4293 34.75 29.8181 33.75 29.0404 32.9167C28.3181 32.0834 27.457 31.4445 26.457 31C25.5126 30.5 24.4848 30.25 23.3737 30.25C22.3181 30.25 21.457 30.3889 20.7904 30.6667C20.1793 30.9445 19.6237 31.2501 19.1237 31.5834C18.6237 31.9167 18.1237 32.2223 17.6237 32.5C17.1793 32.7778 16.5959 32.9167 15.8737 32.9167C15.207 32.9167 14.6237 32.4723 14.1237 31.5834C13.6237 30.6389 13.3737 29.5556 13.3737 28.3334C13.3737 26.2778 13.8459 24.2778 14.7904 22.3334C15.7348 20.3889 17.0126 18.5834 18.6237 16.9167C20.2904 15.1945 22.207 13.6945 24.3737 12.4167C24.6081 12.2819 24.8444 12.1502 25.0825 12.0216C27.1018 10.9311 29.2544 10.0628 31.5404 9.41671V5.58338C31.1857 5.6059 30.8327 5.6347 30.4814 5.66977C29.1429 5.80341 27.8292 6.02819 26.5404 6.3441C25.3387 6.63865 24.1586 7.01242 23.0001 7.46542C22.5097 7.6572 22.0231 7.86319 21.5404 8.08338Z" fill="#31658b"/>
<path d="M70.5404 9.41732C67.9848 10.1395 65.5959 11.1395 63.3737 12.4173C61.207 13.6951 59.2904 15.1951 57.6237 16.9173C56.0126 18.584 54.7348 20.3895 53.7904 22.334C52.8459 24.2784 52.3737 26.2784 52.3737 28.334C52.3737 29.5562 52.6237 30.6395 53.1237 31.584C53.6237 32.4729 54.207 32.9173 54.8737 32.9173C55.5959 32.9173 56.1793 32.7784 56.6237 32.5006C57.1237 32.2229 57.6237 31.9173 58.1237 31.584C58.6237 31.2507 59.1793 30.9451 59.7904 30.6673C60.457 30.3895 61.3181 30.2507 62.3737 30.2507C63.4848 30.2507 64.5126 30.5007 65.457 31.0007C66.457 31.4451 67.3181 32.084 68.0404 32.9173C68.8181 33.7507 69.4293 34.7507 69.8737 35.9173C70.3181 37.084 70.5404 38.334 70.5404 39.6673C70.5404 41.1118 70.2348 42.4451 69.6237 43.6673C69.0126 44.8895 68.1793 45.9451 67.1237 46.834C66.1237 47.7229 64.9293 48.4451 63.5404 49.0007C62.207 49.5007 60.7626 49.7507 59.207 49.7507C57.1515 49.7507 55.2348 49.3062 53.457 48.4173C51.6793 47.4729 50.1237 46.2229 48.7904 44.6673C47.457 43.0562 46.4015 41.2229 45.6237 39.1673C44.8459 37.0562 44.457 34.8062 44.457 32.4173C44.457 28.6395 45.1515 25.1673 46.5404 22.0006C47.9848 18.834 49.8737 16.084 52.207 13.7506C54.5959 11.3618 57.3737 9.47287 60.5404 8.08398C63.707 6.63953 67.0404 5.8062 70.5404 5.58398V9.41732Z" fill="white"/>
<path fill-rule="evenodd" clip-rule="evenodd" d="M75.5404 13.1995L71.9002 14.2283C69.7353 14.8401 67.7364 15.6785 65.8899 16.7375C64.1008 17.7954 62.5502 19.0159 61.2167 20.3938C59.9471 21.7076 58.9851 23.0826 58.2879 24.5179C58.0225 25.0644 57.8187 25.6031 57.6715 26.1376C57.6881 26.13 57.7047 26.1224 57.7213 26.1149L57.7938 26.0819L57.8673 26.0513C59.3564 25.4308 60.9367 25.25 62.3737 25.25C64.2093 25.25 65.9907 25.6582 67.6418 26.5007C69.2249 27.2298 70.6078 28.2645 71.7579 29.5723C72.9861 30.9066 73.9042 32.4517 74.5461 34.1367C75.2215 35.9096 75.5404 37.7668 75.5404 39.6667C75.5404 41.8419 75.0739 43.9467 74.0958 45.9028C73.187 47.7204 71.943 49.3001 70.3954 50.6147C68.9269 51.9089 67.2393 52.9056 65.3973 53.6424L65.3469 53.6626L65.296 53.6817C63.3516 54.4108 61.3067 54.75 59.207 54.75C56.4026 54.75 53.7171 54.1369 51.221 52.8888L51.1658 52.8612L51.1113 52.8323C48.7717 51.5894 46.7267 49.9421 44.9941 47.9207L44.966 47.8879L44.9384 47.8546C43.2364 45.798 41.9099 43.4803 40.9473 40.9362L40.9395 40.9157L40.932 40.8952C39.938 38.1972 39.457 35.3587 39.457 32.4167C39.457 28.0121 40.27 23.8481 41.9614 19.9917L41.9761 19.9583L41.9913 19.925C43.6699 16.245 45.893 12.993 48.6715 10.2145C51.5021 7.38394 54.7898 5.15055 58.4986 3.51913C62.214 1.82919 66.1325 0.853175 70.2235 0.593429L75.5404 0.255859V13.1995ZM60.5404 8.08338C57.3737 9.47227 54.5959 11.3612 52.207 13.75C49.8737 16.0834 47.9848 18.8334 46.5404 22C45.1515 25.1667 44.457 28.6389 44.457 32.4167C44.457 34.8056 44.8459 37.0556 45.6237 39.1667C46.4015 41.2223 47.457 43.0556 48.7904 44.6667C50.1237 46.2223 51.6793 47.4723 53.457 48.4167C55.2348 49.3056 57.1515 49.75 59.207 49.75C60.7626 49.75 62.207 49.5 63.5404 49C64.9293 48.4445 66.1237 47.7223 67.1237 46.8334C68.1793 45.9445 69.0126 44.8889 69.6237 43.6667C70.2348 42.4445 70.5404 41.1112 70.5404 39.6667C70.5404 38.3334 70.3181 37.0834 69.8737 35.9167C69.4293 34.75 68.8181 33.75 68.0404 32.9167C67.3181 32.0834 66.457 31.4445 65.457 31C64.5126 30.5 63.4848 30.25 62.3737 30.25C61.3181 30.25 60.457 30.3889 59.7904 30.6667C59.1793 30.9445 58.6237 31.2501 58.1237 31.5834C57.6237 31.9167 57.1237 32.2223 56.6237 32.5C56.1793 32.7778 55.5959 32.9167 54.8737 32.9167C54.207 32.9167 53.6237 32.4723 53.1237 31.5834C52.6237 30.6389 52.3737 29.5556 52.3737 28.3334C52.3737 26.2778 52.8459 24.2778 53.7904 22.3334C54.7348 20.3889 56.0126 18.5834 57.6237 16.9167C59.2904 15.1945 61.207 13.6945 63.3737 12.4167C63.6081 12.2819 63.8444 12.1502 64.0825 12.0216C66.1018 10.9311 68.2544 10.0628 70.5404 9.41671V5.58338C70.1857 5.6059 69.8327 5.6347 69.4814 5.66977C68.1429 5.80341 66.8292 6.02819 65.5404 6.3441C64.3387 6.63865 63.1586 7.01242 62.0001 7.46542C61.5097 7.6572 61.0231 7.86319 60.5404 8.08338Z" fill="#31658b"/>
</svg>
